<?xml version="1.0" standalone="no"?>
<!DOCTYPE svg PUBLIC "-//W3C//DTD SVG 20010904//EN"
 "http://www.w3.org/TR/2001/REC-SVG-20010904/DTD/svg10.dtd">
<svg version="1.0" xmlns="http://www.w3.org/2000/svg"
 width="200.000000pt" height="200.000000pt" viewBox="0 0 200.000000 200.000000"
 preserveAspectRatio="xMidYMid meet">
<metadata>
Created by potrace 1.11, written by Peter Selinger 2001-2013
</metadata>
<g transform="translate(0.000000,200.000000) scale(0.100000,-0.100000)"
fill="#000000" stroke="none">
<path d="M852 1857 c-20 -27 -21 -47 -2 -59 14 -9 16 -16 8 -31 -8 -16 -17
-82 -20 -147 -1 -24 10 -123 17 -151 5 -21 2 -27 -20 -37 -20 -9 -26 -18 -22
-32 3 -13 -1 -21 -13 -25 -34 -11 -137 -120 -164 -173 -57 -112 -80 -282 -54
-392 23 -94 75 -173 137 -205 16 -8 31 -20 34 -28 3 -8 3 -86 1 -173 -5 -236
-5 -236 11 -254 12 -13 12 -23 2 -60 -7 -25 -12 -51 -11 -57 1 -7 2 -17 3 -23
1 -11 81 -14 82 -2 0 4 2 17 3 29 2 13 6 26 11 30 4 5 6 -9 3 -29 l-4 -38 232
0 232 0 -2 35 c-2 40 13 33 16 -8 2 -25 5 -27 51 -27 l50 0 -7 41 c-4 23 -14
55 -22 71 -12 23 -13 36 -6 52 33 66 25 134 -21 177 -16 16 -37 29 -46 30 -9
0 -25 2 -36 4 -11 2 -32 -2 -47 -10 -24 -11 -34 -11 -74 5 -52 19 -52 18 -60
128 -6 85 1 98 73 134 59 29 156 119 177 162 24 51 31 106 31 241 -1 227 -70
357 -210 397 -55 15 -162 24 -201 17 -29 -5 -42 4 -49 34 -4 17 -9 37 -11 42
-14 42 -22 90 -15 93 5 1 17 10 27 18 18 14 18 14 -4 4 -28 -14 -34 -9 -38 25
-3 29 -2 30 39 10 l32 -16 -24 21 c-13 11 -29 20 -37 20 -13 0 -19 26 -14 60
1 8 10 20 21 28 20 14 24 38 11 59 -11 17 -59 24 -70 10z"/>
<path d="M800 1680 c-8 -5 -10 -10 -5 -10 6 0 17 5 25 10 8 5 11 10 5 10 -5 0
-17 -5 -25 -10z"/>
<path d="M790 1630 c8 -5 20 -10 25 -10 6 0 3 5 -5 10 -8 5 -19 10 -25 10 -5
0 -3 -5 5 -10z"/>
</g>
</svg>
